<svg width="200" height="31" fill="none" xmlns="http://www.w3.org/2000/svg"><path d="M102.425 5.99c-1.439 0-2.61-1.21-2.61-2.7 0-1.493 1.171-2.702 2.61-2.702 1.442 0 2.614 1.21 2.614 2.703 0 1.488-1.172 2.7-2.614 2.7ZM190.328 29.595V8.745l4.6.028v2.143l-.017.611c.252-1.096 1.952-2.964 5.089-3.192v5.01c-2.295.15-4.806.85-4.889 4.447h-.011v11.804l-4.772-.001ZM136.406 13.143c-3.236 0-5.871 2.727-5.871 6.069 0 3.357 2.635 6.076 5.871 6.076 3.24 0 5.877-2.719 5.877-6.076 0-3.342-2.637-6.07-5.877-6.07Zm-.156 16.893c-5.768 0-10.458-4.856-10.458-10.818 0-5.965 4.682-10.816 10.458-10.816 5.76 0 10.455 4.85 10.455 10.816 0 5.956-4.687 10.818-10.455 10.818ZM157.98 13.156c-1.92 0-3.721.971-4.819 2.604l-.048.072v6.777l.048.077c1.1 1.64 2.902 2.608 4.819 2.608 3.24 0 5.876-2.724 5.876-6.067.003-3.357-2.636-6.071-5.876-6.071Zm.567 16.88c-2.415-.04-4.052-.575-5.74-2.23l.044-.024-.114 1.833h-4.399V4.923L153.112 0l-.012 10.58.009-.03c1.24-1.236 3.254-2.147 5.548-2.145l.044.003c5.281-.003 9.745 4.954 9.745 10.818 0 2.822-1.083 5.532-3.067 7.63-1.883 2.004-4.334 3.166-6.728 3.18h-.104ZM178.695 20.402c-3.032 0-4.573.973-4.573 2.881 0 1.658 1.376 2.727 3.506 2.727 3.258 0 5.363-1.767 5.363-4.493v-1.115h-4.296Zm-2.119 9.477c-4.326 0-7.353-2.654-7.353-6.462 0-4.298 3.239-6.568 9.362-6.568h4.406v-.79c0-1.804-1.589-3.672-4.261-3.672-1.905 0-3.564.585-4.511 1.586l-2.58-2.671c.296-.332.63-.627.989-.905 1.681-1.3 3.859-1.988 6.297-1.99 5.292 0 8.709 3.007 8.709 7.653v13.56h-4.556l-.01-1.997-.456.477c-1.595 1.654-3.426 1.779-6.036 1.779ZM108.944 23.71c1.916 1.476 3.861 2.14 6.625 2.14 3.132 0 4.554-.967 4.554-2.391 0-1.51-1.381-2.168-5.188-2.512-5.004-.464-8.32-1.935-8.32-6.328 0-3.78 3.547-6.246 8.429-6.246 3.287 0 6.344 1.151 8.733 3.2.024.027.058.048.08.08l-2.763 2.922c-1.663-1.308-3.773-2.037-6.274-2.037-2.535 0-3.915.771-3.915 1.932 0 1.233 1.121 1.848 4.517 2.193 5.219.54 8.992 2.278 8.992 6.716 0 4.209-3.803 6.638-8.913 6.638-3.704 0-6.644-.931-9.337-3.24-.026-.029-.042-.049-.069-.072l2.849-2.996ZM104.789 8.77h-4.681v20.848h4.681V8.769Z" fill="#F44A1E"/><path d="M12.276 29.589a6.267 6.267 0 0 1-1.377.26 18.65 18.65 0 0 1-1.657.075c-2.285 0-3.945-.583-4.98-1.749-1.04-1.165-1.556-2.738-1.556-4.716V12.745H0V8.76h2.706V4.857L7.701.703V8.76h4.62v3.985H7.7v10.329c0 .954.226 1.672.677 2.148.45.48 1.222.716 2.312.716.372 0 .77-.04 1.189-.11a4.706 4.706 0 0 0 1.192-.38l-.795 4.14ZM51.29 29.615h-4.996V13.094h-2.472V8.852h2.472V6.596c0-1.839.604-3.28 1.815-4.325C49.32 1.225 51.095.704 53.437.704c.403 0 .802.02 1.19.054.389.037.801.085 1.236.133v3.685a24.89 24.89 0 0 0-1.049-.135 10.965 10.965 0 0 0-1.1-.053c-1.025 0-1.723.193-2.097.58-.373.388-.56.933-.56 1.636V8.87h4.9v4.223H51.29v16.522ZM88.206 30.047c-1.651 0-3.136-.264-4.458-.79-1.323-.526-2.443-1.263-3.36-2.217-.918-.952-1.62-2.098-2.103-3.438-.482-1.339-.722-2.84-.722-4.492 0-1.527.264-2.944.793-4.244.53-1.305 1.269-2.425 2.218-3.365a10.14 10.14 0 0 1 3.362-2.2c1.29-.526 2.715-.788 4.27-.788 1.869 0 3.438.286 4.717.865 1.274.574 2.221 1.262 2.846 2.065l-3.83 2.48a4.468 4.468 0 0 0-1.517-.976c-.575-.226-1.313-.338-2.216-.338-1.68 0-3.026.6-4.037 1.804-1.01 1.201-1.52 2.78-1.52 4.737 0 4.536 1.933 6.803 5.789 6.803.718 0 1.36-.134 1.94-.394a6.084 6.084 0 0 0 1.561-1.035l4.109 2.442c-2.053 2.052-4.668 3.08-7.842 3.08ZM14.82 29.785V8.933l4.602.03v2.142l-.02.612c.253-1.097 1.953-2.966 5.091-3.192v5.01c-2.298.147-4.809.847-4.891 4.444h-.01v11.807h-4.771ZM33.966 20.414c-3.033 0-4.577.973-4.577 2.878 0 1.658 1.379 2.728 3.51 2.728 3.254 0 5.36-1.768 5.36-4.49v-1.116h-4.293Zm-2.118 9.476c-4.33 0-7.354-2.652-7.354-6.463 0-4.295 3.231-6.567 9.36-6.567h4.405v-.79c0-1.802-1.588-3.672-4.26-3.672-1.908 0-3.565.584-4.51 1.585l-2.582-2.67c.298-.333.632-.626.991-.906 1.68-1.298 3.858-1.985 6.297-1.988 5.294 0 8.709 3.008 8.709 7.65v13.564H38.35l-.012-1.999-.457.476c-1.596 1.657-3.428 1.78-6.033 1.78ZM75.987 8.855h-4.682v20.85h4.682V8.856ZM73.647 6.105c-1.44 0-2.612-1.212-2.612-2.7 0-1.493 1.172-2.702 2.612-2.702 1.443 0 2.608 1.21 2.608 2.702 0 1.488-1.165 2.7-2.608 2.7ZM65.048 29.615H60.05V13.094H57.58V8.852h2.472V6.596c0-1.839.606-3.28 1.815-4.325 1.211-1.046 2.988-1.567 5.33-1.567.403 0 .8.02 1.188.054.39.037.8.085 1.238.133v3.685a25.665 25.665 0 0 0-1.05-.135c-.359-.036-.725-.053-1.097-.053-1.025 0-1.727.193-2.1.58-.375.388-.56.933-.56 1.636V8.87h4.9v4.223h-4.667v16.522Z" fill="#fff"/></svg>