<svg width="25" height="20" viewBox="0 0 15 13" fill="none" xmlns="http://www.w3.org/2000/svg">
<path d="M1 0.719971C0.723858 0.719971 0.5 0.943828 0.5 1.21997C0.5 1.49611 0.723858 1.71997 1 1.71997V0.719971ZM14.2 1.71997C14.4761 1.71997 14.7 1.49611 14.7 1.21997C14.7 0.943828 14.4761 0.719971 14.2 0.719971V1.71997ZM1 5.99997C0.723858 5.99997 0.5 6.22383 0.5 6.49997C0.5 6.77611 0.723858 6.99997 1 6.99997V5.99997ZM14.2 6.99997C14.4761 6.99997 14.7 6.77611 14.7 6.49997C14.7 6.22383 14.4761 5.99997 14.2 5.99997V6.99997ZM1 11.28C0.723858 11.28 0.5 11.5038 0.5 11.78C0.5 12.0561 0.723858 12.28 1 12.28V11.28ZM14.2 12.28C14.4761 12.28 14.7 12.0561 14.7 11.78C14.7 11.5038 14.4761 11.28 14.2 11.28V12.28ZM1 1.71997H14.2V0.719971H1V1.71997ZM1 6.99997H14.2V5.99997H1V6.99997ZM1 12.28H14.2V11.28H1V12.28Z" fill="#ffffff"/>
</svg>
