<svg width="25" height="20" viewBox="0 0 15 15" fill="none" xmlns="http://www.w3.org/2000/svg">
<path d="M1.35355 0.866173C1.15829 0.670911 0.841709 0.670911 0.646447 0.866173C0.451184 1.06144 0.451184 1.37802 0.646447 1.57328L1.35355 0.866173ZM14.3536 1.57328C14.5488 1.37802 14.5488 1.06144 14.3536 0.866173C14.1583 0.670911 13.8417 0.670911 13.6464 0.866173L14.3536 1.57328ZM0.646447 13.8662C0.451184 14.0614 0.451184 14.378 0.646447 14.5733C0.841709 14.7685 1.15829 14.7685 1.35355 14.5733L0.646447 13.8662ZM13.6464 14.5733C13.8417 14.7685 14.1583 14.7685 14.3536 14.5733C14.5488 14.378 14.5488 14.0614 14.3536 13.8662L13.6464 14.5733ZM0.646447 1.57328L13.6464 14.5733L14.3536 13.8662L1.35355 0.866173L0.646447 1.57328ZM13.6464 0.866173L0.646447 13.8662L1.35355 14.5733L14.3536 1.57328L13.6464 0.866173Z" fill="#ffffff"/>
</svg>
